STARTFONT 2.1
FONT -Monotype-Bookman Old Style-Regular-I-Normal--10-100-75-75-P-53-iso8859-2
SIZE 10 75 75
FONTBOUNDINGBOX 17 13 -4 -3

STARTPROPERTIES 22
FOUNDRY "Monotype"
FAMILY_NAME "Bookman Old Style"
WEIGHT_NAME "Regular"
SLANT "I"
SETWIDTH_NAME "Normal"
ADD_STYLE_NAME ""
PIXEL_SIZE 10
POINT_SIZE 100
RESOLUTION_X 75
RESOLUTION_Y 75
SPACING "P"
AVERAGE_WIDTH 53
CHARSET_REGISTRY "iso8859"
CHARSET_ENCODING "2"
COPYRIGHT "Copyright (c) 1996 Monotype Typography Ltd."
CAP_HEIGHT 8
X_HEIGHT 6
WEIGHT 10
QUAD_WIDTH 6
DEFAULT_CHAR 160
FONT_DESCENT 3
FONT_ASCENT 10
ENDPROPERTIES

CHARS 191

STARTCHAR space
ENCODING 32
SWIDTH 300 0
DWIDTH 3 0
BBX 0 0 0 0
BITMAP
ENDCHAR

STARTCHAR exclam
ENCODING 33
SWIDTH 320 0
DWIDTH 3 0
BBX 2 7 1 0
BITMAP
40
40
40
80
80
00
80
ENDCHAR

STARTCHAR quotedbl
ENCODING 34
SWIDTH 360 0
DWIDTH 4 0
BBX 3 3 1 4
BITMAP
A0
A0
A0
ENDCHAR

STARTCHAR numbersign
ENCODING 35
SWIDTH 600 0
DWIDTH 6 0
BBX 6 7 0 0
BITMAP
28
28
FC
28
FC
50
50
ENDCHAR

STARTCHAR dollar
ENCODING 36
SWIDTH 620 0
DWIDTH 6 0
BBX 6 9 0 -1
BITMAP
08
38
4C
50
38
14
D4
78
20
ENDCHAR

STARTCHAR percent
ENCODING 37
SWIDTH 800 0
DWIDTH 8 0
BBX 8 7 0 0
BITMAP
71
92
94
EF
19
29
4E
ENDCHAR

STARTCHAR ampersand
ENCODING 38
SWIDTH 820 0
DWIDTH 8 0
BBX 7 7 1 0
BITMAP
30
48
70
96
88
9A
64
ENDCHAR

STARTCHAR quoteright
ENCODING 39
SWIDTH 280 0
DWIDTH 3 0
BBX 2 3 1 4
BITMAP
40
40
80
ENDCHAR

STARTCHAR parenleft
ENCODING 40
SWIDTH 280 0
DWIDTH 3 0
BBX 3 9 0 -2
BITMAP
20
20
40
40
80
80
80
80
80
ENDCHAR

STARTCHAR parenright
ENCODING 41
SWIDTH 280 0
DWIDTH 3 0
BBX 3 9 0 -2
BITMAP
20
20
20
20
20
40
40
80
80
ENDCHAR

STARTCHAR asterisk
ENCODING 42
SWIDTH 440 0
DWIDTH 4 0
BBX 3 3 1 4
BITMAP
40
E0
40
ENDCHAR

STARTCHAR plus
ENCODING 43
SWIDTH 600 0
DWIDTH 6 0
BBX 5 5 1 1
BITMAP
20
20
F8
20
20
ENDCHAR

STARTCHAR comma
ENCODING 44
SWIDTH 300 0
DWIDTH 3 0
BBX 2 3 1 -2
BITMAP
40
40
80
ENDCHAR

STARTCHAR minus
ENCODING 45
SWIDTH 600 0
DWIDTH 6 0
BBX 5 1 1 3
BITMAP
F8
ENDCHAR

STARTCHAR period
ENCODING 46
SWIDTH 300 0
DWIDTH 3 0
BBX 1 1 1 0
BITMAP
80
ENDCHAR

STARTCHAR slash
ENCODING 47
SWIDTH 600 0
DWIDTH 6 0
BBX 6 9 0 -2
BITMAP
04
08
08
10
20
20
40
80
80
ENDCHAR

STARTCHAR zero
ENCODING 48
SWIDTH 620 0
DWIDTH 6 0
BBX 5 7 1 0
BITMAP
30
48
48
88
90
90
60
ENDCHAR

STARTCHAR one
ENCODING 49
SWIDTH 620 0
DWIDTH 6 0
BBX 3 7 2 0
BITMAP
20
60
20
20
40
40
E0
ENDCHAR

STARTCHAR two
ENCODING 50
SWIDTH 620 0
DWIDTH 6 0
BBX 6 7 0 0
BITMAP
18
24
44
08
10
28
F8
ENDCHAR

STARTCHAR three
ENCODING 51
SWIDTH 620 0
DWIDTH 6 0
BBX 5 7 1 0
BITMAP
30
48
08
30
10
90
60
ENDCHAR

STARTCHAR four
ENCODING 52
SWIDTH 620 0
DWIDTH 6 0
BBX 5 7 1 0
BITMAP
08
18
28
50
F8
10
10
ENDCHAR

STARTCHAR five
ENCODING 53
SWIDTH 620 0
DWIDTH 6 0
BBX 6 7 1 0
BITMAP
3C
40
70
08
08
90
60
ENDCHAR

STARTCHAR six
ENCODING 54
SWIDTH 620 0
DWIDTH 6 0
BBX 5 7 1 0
BITMAP
38
40
70
88
88
90
60
ENDCHAR

STARTCHAR seven
ENCODING 55
SWIDTH 620 0
DWIDTH 6 0
BBX 5 7 1 0
BITMAP
F8
90
10
20
40
40
80
ENDCHAR

STARTCHAR eight
ENCODING 56
SWIDTH 620 0
DWIDTH 6 0
BBX 5 7 1 0
BITMAP
30
48
48
70
88
88
70
ENDCHAR

STARTCHAR nine
ENCODING 57
SWIDTH 620 0
DWIDTH 6 0
BBX 5 7 1 0
BITMAP
30
48
88
88
70
10
E0
ENDCHAR

STARTCHAR colon
ENCODING 58
SWIDTH 300 0
DWIDTH 3 0
BBX 2 5 1 0
BITMAP
40
00
00
00
80
ENDCHAR

STARTCHAR semicolon
ENCODING 59
SWIDTH 300 0
DWIDTH 3 0
BBX 3 7 0 -2
BITMAP
20
00
00
00
40
40
80
ENDCHAR

STARTCHAR less
ENCODING 60
SWIDTH 600 0
DWIDTH 6 0
BBX 5 5 1 1
BITMAP
08
30
C0
60
18
ENDCHAR

STARTCHAR equal
ENCODING 61
SWIDTH 600 0
DWIDTH 6 0
BBX 5 3 1 2
BITMAP
F8
00
F8
ENDCHAR

STARTCHAR greater
ENCODING 62
SWIDTH 600 0
DWIDTH 6 0
BBX 5 5 1 1
BITMAP
C0
30
18
60
80
ENDCHAR

STARTCHAR question
ENCODING 63
SWIDTH 540 0
DWIDTH 5 0
BBX 5 7 0 0
BITMAP
70
88
08
30
40
00
80
ENDCHAR

STARTCHAR at
ENCODING 64
SWIDTH 780 0
DWIDTH 8 0
BBX 9 9 0 -2
BITMAP
1F00
6080
4E80
9280
A480
AD00
5680
6100
1E00
ENDCHAR

STARTCHAR A
ENCODING 65
SWIDTH 700 0
DWIDTH 7 0
BBX 7 7 0 0
BITMAP
04
0C
14
14
3C
44
EE
ENDCHAR

STARTCHAR B
ENCODING 66
SWIDTH 720 0
DWIDTH 7 0
BBX 7 7 0 0
BITMAP
7C
22
22
7C
42
42
FC
ENDCHAR

STARTCHAR C
ENCODING 67
SWIDTH 720 0
DWIDTH 7 0
BBX 6 7 1 0
BITMAP
38
4C
80
80
80
88
70
ENDCHAR

STARTCHAR D
ENCODING 68
SWIDTH 740 0
DWIDTH 7 0
BBX 7 7 0 0
BITMAP
7C
22
22
42
42
44
F8
ENDCHAR

STARTCHAR E
ENCODING 69
SWIDTH 680 0
DWIDTH 7 0
BBX 7 7 0 0
BITMAP
7C
22
28
78
48
42
FC
ENDCHAR

STARTCHAR F
ENCODING 70
SWIDTH 620 0
DWIDTH 6 0
BBX 7 7 0 0
BITMAP
7C
22
28
78
48
40
E0
ENDCHAR

STARTCHAR G
ENCODING 71
SWIDTH 760 0
DWIDTH 8 0
BBX 7 7 1 0
BITMAP
3C
46
80
8E
84
8C
74
ENDCHAR

STARTCHAR H
ENCODING 72
SWIDTH 800 0
DWIDTH 8 0
BBX 8 7 0 0
BITMAP
77
22
22
7E
44
44
EE
ENDCHAR

STARTCHAR I
ENCODING 73
SWIDTH 320 0
DWIDTH 4 0
BBX 4 7 0 0
BITMAP
70
20
20
40
40
40
E0
ENDCHAR

STARTCHAR J
ENCODING 74
SWIDTH 560 0
DWIDTH 6 0
BBX 7 7 0 0
BITMAP
0E
04
04
08
88
88
70
ENDCHAR

STARTCHAR K
ENCODING 75
SWIDTH 720 0
DWIDTH 7 0
BBX 8 7 0 0
BITMAP
77
22
24
78
48
44
EE
ENDCHAR

STARTCHAR L
ENCODING 76
SWIDTH 580 0
DWIDTH 6 0
BBX 6 7 0 0
BITMAP
70
20
20
40
40
44
F8
ENDCHAR

STARTCHAR M
ENCODING 77
SWIDTH 860 0
DWIDTH 9 0
BBX 10 7 0 0
BITMAP
60C0
2080
3180
5B00
5D00
4900
EB80
ENDCHAR

STARTCHAR N
ENCODING 78
SWIDTH 720 0
DWIDTH 7 0
BBX 8 7 0 0
BITMAP
77
32
2A
2A
46
44
E4
ENDCHAR

STARTCHAR O
ENCODING 79
SWIDTH 760 0
DWIDTH 8 0
BBX 6 7 1 0
BITMAP
38
44
84
84
84
88
70
ENDCHAR

STARTCHAR P
ENCODING 80
SWIDTH 600 0
DWIDTH 6 0
BBX 7 7 0 0
BITMAP
7C
22
22
7C
40
40
E0
ENDCHAR

STARTCHAR Q
ENCODING 81
SWIDTH 780 0
DWIDTH 8 0
BBX 6 9 1 -2
BITMAP
38
44
84
84
84
88
70
20
18
ENDCHAR

STARTCHAR R
ENCODING 82
SWIDTH 700 0
DWIDTH 7 0
BBX 7 7 0 0
BITMAP
7C
22
22
7C
48
44
EE
ENDCHAR

STARTCHAR S
ENCODING 83
SWIDTH 640 0
DWIDTH 6 0
BBX 6 7 0 0
BITMAP
38
4C
40
30
08
C8
70
ENDCHAR

STARTCHAR T
ENCODING 84
SWIDTH 600 0
DWIDTH 6 0
BBX 13 7 0 0
BITMAP
7C00
9400
1008
2000
2000
2000
7000
ENDCHAR

STARTCHAR U
ENCODING 85
SWIDTH 720 0
DWIDTH 7 0
BBX 7 7 1 0
BITMAP
EE
44
44
88
88
88
70
ENDCHAR

STARTCHAR V
ENCODING 86
SWIDTH 680 0
DWIDTH 7 0
BBX 7 7 0 0
BITMAP
EE
44
44
28
28
30
20
ENDCHAR

STARTCHAR W
ENCODING 87
SWIDTH 960 0
DWIDTH 9 0
BBX 10 7 0 0
BITMAP
EDC0
4480
4C80
2D00
3500
2600
2400
ENDCHAR

STARTCHAR X
ENCODING 88
SWIDTH 700 0
DWIDTH 7 0
BBX 8 7 0 0
BITMAP
3B
12
14
18
28
44
EE
ENDCHAR

STARTCHAR Y
ENCODING 89
SWIDTH 660 0
DWIDTH 7 0
BBX 7 7 0 0
BITMAP
EE
44
28
10
10
20
70
ENDCHAR

STARTCHAR Z
ENCODING 90
SWIDTH 580 0
DWIDTH 6 0
BBX 7 7 0 0
BITMAP
3E
44
08
10
20
44
F8
ENDCHAR

STARTCHAR bracketleft
ENCODING 91
SWIDTH 260 0
DWIDTH 3 0
BBX 3 9 0 -2
BITMAP
60
40
40
40
40
80
80
80
C0
ENDCHAR

STARTCHAR backslash
ENCODING 92
SWIDTH 600 0
DWIDTH 6 0
BBX 6 9 0 -2
BITMAP
80
80
40
20
20
10
08
08
04
ENDCHAR

STARTCHAR bracketright
ENCODING 93
SWIDTH 260 0
DWIDTH 3 0
BBX 3 9 0 -2
BITMAP
60
20
20
20
40
40
40
40
C0
ENDCHAR

STARTCHAR asciicircum
ENCODING 94
SWIDTH 600 0
DWIDTH 6 0
BBX 5 4 1 3
BITMAP
10
30
48
88
ENDCHAR

STARTCHAR underscore
ENCODING 95
SWIDTH 500 0
DWIDTH 5 0
BBX 5 1 0 -1
BITMAP
F8
ENDCHAR

STARTCHAR quoteleft
ENCODING 96
SWIDTH 280 0
DWIDTH 3 0
BBX 2 3 1 4
BITMAP
40
80
80
ENDCHAR

STARTCHAR a
ENCODING 97
SWIDTH 620 0
DWIDTH 6 0
BBX 5 5 1 0
BITMAP
38
48
90
B0
58
ENDCHAR

STARTCHAR b
ENCODING 98
SWIDTH 600 0
DWIDTH 6 0
BBX 5 7 1 0
BITMAP
60
20
70
48
88
90
E0
ENDCHAR

STARTCHAR c
ENCODING 99
SWIDTH 480 0
DWIDTH 5 0
BBX 5 5 1 0
BITMAP
30
48
80
88
70
ENDCHAR

STARTCHAR d
ENCODING 100
SWIDTH 640 0
DWIDTH 7 0
BBX 7 7 1 0
BITMAP
06
02
34
4C
88
98
6C
ENDCHAR

STARTCHAR e
ENCODING 101
SWIDTH 540 0
DWIDTH 5 0
BBX 5 5 1 0
BITMAP
30
48
F0
80
70
ENDCHAR

STARTCHAR f
ENCODING 102
SWIDTH 340 0
DWIDTH 3 0
BBX 7 9 -1 -2
BITMAP
06
08
3C
10
10
10
20
20
C0
ENDCHAR

STARTCHAR g
ENCODING 103
SWIDTH 560 0
DWIDTH 6 0
BBX 5 7 1 -2
BITMAP
38
48
88
B0
50
10
E0
ENDCHAR

STARTCHAR h
ENCODING 104
SWIDTH 620 0
DWIDTH 6 0
BBX 5 7 1 0
BITMAP
60
20
58
68
48
90
98
ENDCHAR

STARTCHAR i
ENCODING 105
SWIDTH 280 0
DWIDTH 3 0
BBX 2 7 1 0
BITMAP
40
00
C0
40
80
80
C0
ENDCHAR

STARTCHAR j
ENCODING 106
SWIDTH 280 0
DWIDTH 3 0
BBX 4 9 -1 -2
BITMAP
10
00
30
10
10
20
20
20
C0
ENDCHAR

STARTCHAR k
ENCODING 107
SWIDTH 600 0
DWIDTH 6 0
BBX 5 7 1 0
BITMAP
60
20
58
60
60
90
98
ENDCHAR

STARTCHAR l
ENCODING 108
SWIDTH 280 0
DWIDTH 3 0
BBX 3 7 1 0
BITMAP
60
20
40
40
40
80
C0
ENDCHAR

STARTCHAR m
ENCODING 109
SWIDTH 880 0
DWIDTH 9 0
BBX 8 5 1 0
BITMAP
DB
6D
49
92
93
ENDCHAR

STARTCHAR n
ENCODING 110
SWIDTH 620 0
DWIDTH 6 0
BBX 5 5 1 0
BITMAP
D8
68
48
90
98
ENDCHAR

STARTCHAR o
ENCODING 111
SWIDTH 540 0
DWIDTH 5 0
BBX 5 5 1 0
BITMAP
30
48
88
90
60
ENDCHAR

STARTCHAR p
ENCODING 112
SWIDTH 600 0
DWIDTH 6 0
BBX 6 7 0 -2
BITMAP
78
24
24
28
50
40
E0
ENDCHAR

STARTCHAR q
ENCODING 113
SWIDTH 560 0
DWIDTH 6 0
BBX 5 7 1 -2
BITMAP
38
48
88
90
70
10
38
ENDCHAR

STARTCHAR r
ENCODING 114
SWIDTH 400 0
DWIDTH 4 0
BBX 4 5 1 0
BITMAP
D0
60
40
80
80
ENDCHAR

STARTCHAR s
ENCODING 115
SWIDTH 540 0
DWIDTH 5 0
BBX 5 5 0 0
BITMAP
38
40
30
88
70
ENDCHAR

STARTCHAR t
ENCODING 116
SWIDTH 340 0
DWIDTH 3 0
BBX 3 6 1 0
BITMAP
40
E0
40
80
A0
C0
ENDCHAR

STARTCHAR u
ENCODING 117
SWIDTH 620 0
DWIDTH 6 0
BBX 5 5 1 0
BITMAP
C8
48
90
B0
D8
ENDCHAR

STARTCHAR v
ENCODING 118
SWIDTH 540 0
DWIDTH 5 0
BBX 4 5 2 0
BITMAP
D0
50
90
A0
C0
ENDCHAR

STARTCHAR w
ENCODING 119
SWIDTH 880 0
DWIDTH 9 0
BBX 8 5 1 0
BITMAP
CA
49
91
B2
CC
ENDCHAR

STARTCHAR x
ENCODING 120
SWIDTH 540 0
DWIDTH 5 0
BBX 6 5 0 0
BITMAP
64
28
10
28
CC
ENDCHAR

STARTCHAR y
ENCODING 121
SWIDTH 600 0
DWIDTH 6 0
BBX 6 7 0 -2
BITMAP
64
24
44
58
28
88
70
ENDCHAR

STARTCHAR z
ENCODING 122
SWIDTH 520 0
DWIDTH 5 0
BBX 6 5 0 0
BITMAP
3C
48
30
44
F8
ENDCHAR

STARTCHAR braceleft
ENCODING 123
SWIDTH 360 0
DWIDTH 4 0
BBX 4 9 0 -2
BITMAP
10
20
40
40
80
80
40
40
20
ENDCHAR

STARTCHAR bar
ENCODING 124
SWIDTH 600 0
DWIDTH 6 0
BBX 1 9 3 -2
BITMAP
80
80
80
80
80
80
80
80
80
ENDCHAR

STARTCHAR braceright
ENCODING 125
SWIDTH 380 0
DWIDTH 4 0
BBX 4 9 0 -2
BITMAP
40
20
20
10
10
20
20
40
80
ENDCHAR

STARTCHAR asciitilde
ENCODING 126
SWIDTH 600 0
DWIDTH 6 0
BBX 4 2 1 2
BITMAP
D0
B0
ENDCHAR

STARTCHAR space
ENCODING 160
SWIDTH 300 0
DWIDTH 4 0
BBX 0 0 0 0
BITMAP
ENDCHAR

STARTCHAR Aogonek
ENCODING 161
SWIDTH 700 0
DWIDTH 7 0
BBX 7 9 0 -2
BITMAP
04
0C
14
14
3C
44
EE
04
06
ENDCHAR

STARTCHAR breve
ENCODING 162
SWIDTH 440 0
DWIDTH 4 0
BBX 4 2 0 6
BITMAP
90
60
ENDCHAR

STARTCHAR Lslash
ENCODING 163
SWIDTH 580 0
DWIDTH 6 0
BBX 6 7 0 0
BITMAP
70
20
30
40
C0
44
F8
ENDCHAR

STARTCHAR currency
ENCODING 164
SWIDTH 600 0
DWIDTH 6 0
BBX 5 5 1 1
BITMAP
A8
50
88
50
A8
ENDCHAR

STARTCHAR Lcaron
ENCODING 165
SWIDTH 580 0
DWIDTH 6 0
BBX 6 7 0 0
BITMAP
74
24
28
40
40
44
F8
ENDCHAR

STARTCHAR Sacute
ENCODING 166
SWIDTH 640 0
DWIDTH 6 0
BBX 6 10 0 0
BITMAP
08
10
00
38
4C
40
30
08
C8
70
ENDCHAR

STARTCHAR section
ENCODING 167
SWIDTH 620 0
DWIDTH 6 0
BBX 6 9 0 -2
BITMAP
18
24
30
48
44
24
18
88
70
ENDCHAR

STARTCHAR dieresis
ENCODING 168
SWIDTH 420 0
DWIDTH 4 0
BBX 3 1 1 6
BITMAP
A0
ENDCHAR

STARTCHAR Scaron
ENCODING 169
SWIDTH 640 0
DWIDTH 6 0
BBX 6 10 0 0
BITMAP
28
10
00
38
4C
40
30
08
C8
70
ENDCHAR

STARTCHAR Scommaaccent
ENCODING 170
SWIDTH 640 0
DWIDTH 6 0
BBX 6 10 0 -3
BITMAP
38
4C
40
30
08
C8
70
00
20
40
ENDCHAR

STARTCHAR Tcaron
ENCODING 171
SWIDTH 600 0
DWIDTH 6 0
BBX 6 10 0 0
BITMAP
28
10
00
7C
94
10
20
20
20
70
ENDCHAR

STARTCHAR Zacute
ENCODING 172
SWIDTH 580 0
DWIDTH 6 0
BBX 7 10 0 0
BITMAP
04
08
00
3E
44
08
10
20
44
F8
ENDCHAR

STARTCHAR hyphen
ENCODING 173
SWIDTH 320 0
DWIDTH 3 0
BBX 3 1 0 2
BITMAP
E0
ENDCHAR

STARTCHAR Zcaron
ENCODING 174
SWIDTH 580 0
DWIDTH 6 0
BBX 7 10 0 0
BITMAP
14
08
00
3E
44
08
10
20
44
F8
ENDCHAR

STARTCHAR Zdotaccent
ENCODING 175
SWIDTH 580 0
DWIDTH 6 0
BBX 7 9 0 0
BITMAP
08
00
3E
44
08
10
20
44
F8
ENDCHAR

STARTCHAR degree
ENCODING 176
SWIDTH 400 0
DWIDTH 4 0
BBX 3 3 1 4
BITMAP
40
A0
40
ENDCHAR

STARTCHAR aogonek
ENCODING 177
SWIDTH 620 0
DWIDTH 6 0
BBX 5 7 1 -2
BITMAP
38
48
90
B0
58
10
18
ENDCHAR

STARTCHAR ogonek
ENCODING 178
SWIDTH 260 0
DWIDTH 3 0
BBX 2 2 1 -2
BITMAP
80
C0
ENDCHAR

STARTCHAR lslash
ENCODING 179
SWIDTH 340 0
DWIDTH 3 0
BBX 4 7 0 0
BITMAP
30
10
20
30
E0
40
60
ENDCHAR

STARTCHAR acute
ENCODING 180
SWIDTH 320 0
DWIDTH 3 0
BBX 2 2 1 6
BITMAP
40
80
ENDCHAR

STARTCHAR lcaron
ENCODING 181
SWIDTH 374 0
DWIDTH 3 0
BBX 5 7 1 0
BITMAP
68
28
50
40
40
80
C0
ENDCHAR

STARTCHAR sacute
ENCODING 182
SWIDTH 540 0
DWIDTH 5 0
BBX 5 8 0 0
BITMAP
08
10
00
38
40
30
88
70
ENDCHAR

STARTCHAR caron
ENCODING 183
SWIDTH 440 0
DWIDTH 4 0
BBX 4 2 0 6
BITMAP
90
60
ENDCHAR

STARTCHAR commaaccent
ENCODING 184
SWIDTH 333 0
DWIDTH 3 0
BBX 2 2 0 -3
BITMAP
40
80
ENDCHAR

STARTCHAR scaron
ENCODING 185
SWIDTH 540 0
DWIDTH 5 0
BBX 5 8 0 0
BITMAP
28
10
00
38
40
30
88
70
ENDCHAR

STARTCHAR scommaaccent
ENCODING 186
SWIDTH 540 0
DWIDTH 5 0
BBX 5 8 0 -3
BITMAP
38
40
30
88
70
00
20
40
ENDCHAR

STARTCHAR tcaron
ENCODING 187
SWIDTH 358 0
DWIDTH 3 0
BBX 4 7 1 0
BITMAP
10
50
E0
40
80
A0
C0
ENDCHAR

STARTCHAR zacute
ENCODING 188
SWIDTH 520 0
DWIDTH 5 0
BBX 6 8 0 0
BITMAP
08
10
00
3C
48
30
44
F8
ENDCHAR

STARTCHAR hungarumlaut
ENCODING 189
SWIDTH 340 0
DWIDTH 3 0
BBX 4 2 0 6
BITMAP
50
A0
ENDCHAR

STARTCHAR zcaron
ENCODING 190
SWIDTH 520 0
DWIDTH 5 0
BBX 6 8 0 0
BITMAP
28
10
00
3C
48
30
44
F8
ENDCHAR

STARTCHAR zdotaccent
ENCODING 191
SWIDTH 520 0
DWIDTH 5 0
BBX 6 7 0 0
BITMAP
08
00
3C
48
30
44
F8
ENDCHAR

STARTCHAR Racute
ENCODING 192
SWIDTH 700 0
DWIDTH 7 0
BBX 7 10 0 0
BITMAP
04
08
00
7C
22
22
7C
48
44
EE
ENDCHAR

STARTCHAR Aacute
ENCODING 193
SWIDTH 700 0
DWIDTH 7 0
BBX 7 10 0 0
BITMAP
02
04
00
04
0C
14
14
3C
44
EE
ENDCHAR

STARTCHAR Acircumflex
ENCODING 194
SWIDTH 700 0
DWIDTH 7 0
BBX 7 10 0 0
BITMAP
04
0A
00
04
0C
14
14
3C
44
EE
ENDCHAR

STARTCHAR Abreve
ENCODING 195
SWIDTH 700 0
DWIDTH 7 0
BBX 8 10 0 0
BITMAP
09
06
00
04
0C
14
14
3C
44
EE
ENDCHAR

STARTCHAR Adieresis
ENCODING 196
SWIDTH 700 0
DWIDTH 7 0
BBX 7 9 0 0
BITMAP
0A
00
04
0C
14
14
3C
44
EE
ENDCHAR

STARTCHAR Lacute
ENCODING 197
SWIDTH 580 0
DWIDTH 6 0
BBX 6 10 0 0
BITMAP
10
20
00
70
20
20
40
40
44
F8
ENDCHAR

STARTCHAR Cacute
ENCODING 198
SWIDTH 720 0
DWIDTH 7 0
BBX 6 10 1 0
BITMAP
08
10
00
38
4C
80
80
80
88
70
ENDCHAR

STARTCHAR Ccedilla
ENCODING 199
SWIDTH 720 0
DWIDTH 7 0
BBX 6 10 1 -3
BITMAP
38
4C
80
80
80
88
70
20
10
60
ENDCHAR

STARTCHAR Ccaron
ENCODING 200
SWIDTH 720 0
DWIDTH 7 0
BBX 6 10 1 0
BITMAP
28
10
00
38
4C
80
80
80
88
70
ENDCHAR

STARTCHAR Eacute
ENCODING 201
SWIDTH 680 0
DWIDTH 7 0
BBX 7 10 0 0
BITMAP
08
10
00
7C
22
28
78
48
42
FC
ENDCHAR

STARTCHAR Eogonek
ENCODING 202
SWIDTH 680 0
DWIDTH 7 0
BBX 7 9 0 -2
BITMAP
7C
22
28
78
48
42
FC
04
06
ENDCHAR

STARTCHAR Edieresis
ENCODING 203
SWIDTH 680 0
DWIDTH 7 0
BBX 7 9 0 0
BITMAP
14
00
7C
22
28
78
48
42
FC
ENDCHAR

STARTCHAR Ecaron
ENCODING 204
SWIDTH 680 0
DWIDTH 7 0
BBX 7 10 0 0
BITMAP
14
08
00
7C
22
28
78
48
42
FC
ENDCHAR

STARTCHAR Iacute
ENCODING 205
SWIDTH 320 0
DWIDTH 4 0
BBX 4 10 0 0
BITMAP
10
20
00
70
20
20
40
40
40
E0
ENDCHAR

STARTCHAR Icircumflex
ENCODING 206
SWIDTH 320 0
DWIDTH 4 0
BBX 5 10 0 0
BITMAP
10
28
00
70
20
20
40
40
40
E0
ENDCHAR

STARTCHAR Dcaron
ENCODING 207
SWIDTH 740 0
DWIDTH 7 0
BBX 7 10 0 0
BITMAP
14
08
00
7C
22
22
42
42
44
F8
ENDCHAR

STARTCHAR Dcroat
ENCODING 208
SWIDTH 740 0
DWIDTH 7 0
BBX 7 7 0 0
BITMAP
7C
22
22
F2
42
44
F8
ENDCHAR

STARTCHAR Nacute
ENCODING 209
SWIDTH 720 0
DWIDTH 7 0
BBX 8 10 0 0
BITMAP
04
08
00
77
32
2A
2A
46
44
E4
ENDCHAR

STARTCHAR Ncaron
ENCODING 210
SWIDTH 720 0
DWIDTH 7 0
BBX 8 10 0 0
BITMAP
14
08
00
77
32
2A
2A
46
44
E4
ENDCHAR

STARTCHAR Oacute
ENCODING 211
SWIDTH 760 0
DWIDTH 8 0
BBX 6 10 1 0
BITMAP
08
10
00
38
44
84
84
84
88
70
ENDCHAR

STARTCHAR Ocircumflex
ENCODING 212
SWIDTH 760 0
DWIDTH 8 0
BBX 6 10 1 0
BITMAP
10
28
00
38
44
84
84
84
88
70
ENDCHAR

STARTCHAR Ohungarumlaut
ENCODING 213
SWIDTH 760 0
DWIDTH 8 0
BBX 6 10 1 0
BITMAP
14
28
00
38
44
84
84
84
88
70
ENDCHAR

STARTCHAR Odieresis
ENCODING 214
SWIDTH 760 0
DWIDTH 8 0
BBX 6 9 1 0
BITMAP
28
00
38
44
84
84
84
88
70
ENDCHAR

STARTCHAR multiply
ENCODING 215
SWIDTH 600 0
DWIDTH 6 0
BBX 4 4 1 1
BITMAP
90
60
60
90
ENDCHAR

STARTCHAR Rcaron
ENCODING 216
SWIDTH 700 0
DWIDTH 7 0
BBX 7 10 0 0
BITMAP
14
08
00
7C
22
22
7C
48
44
EE
ENDCHAR

STARTCHAR Uring
ENCODING 217
SWIDTH 720 0
DWIDTH 7 0
BBX 7 10 1 0
BITMAP
10
28
10
EE
44
44
88
88
88
70
ENDCHAR

STARTCHAR Uacute
ENCODING 218
SWIDTH 720 0
DWIDTH 7 0
BBX 7 10 1 0
BITMAP
08
10
00
EE
44
44
88
88
88
70
ENDCHAR

STARTCHAR Uhungarumlaut
ENCODING 219
SWIDTH 720 0
DWIDTH 7 0
BBX 7 10 1 0
BITMAP
14
28
00
EE
44
44
88
88
88
70
ENDCHAR

STARTCHAR Udieresis
ENCODING 220
SWIDTH 720 0
DWIDTH 7 0
BBX 7 9 1 0
BITMAP
28
00
EE
44
44
88
88
88
70
ENDCHAR

STARTCHAR Yacute
ENCODING 221
SWIDTH 660 0
DWIDTH 7 0
BBX 7 10 0 0
BITMAP
08
10
00
EE
44
28
10
10
20
70
ENDCHAR

STARTCHAR Tcommaaccent
ENCODING 222
SWIDTH 600 0
DWIDTH 6 0
BBX 6 10 0 -3
BITMAP
7C
94
10
20
20
20
70
00
20
40
ENDCHAR

STARTCHAR germandbls
ENCODING 223
SWIDTH 620 0
DWIDTH 6 0
BBX 7 9 -1 -2
BITMAP
0C
12
16
68
26
32
2C
20
C0
ENDCHAR

STARTCHAR racute
ENCODING 224
SWIDTH 400 0
DWIDTH 4 0
BBX 4 8 1 0
BITMAP
10
20
00
D0
60
40
80
80
ENDCHAR

STARTCHAR aacute
ENCODING 225
SWIDTH 620 0
DWIDTH 6 0
BBX 5 8 1 0
BITMAP
08
10
00
38
48
90
B0
58
ENDCHAR

STARTCHAR acircumflex
ENCODING 226
SWIDTH 620 0
DWIDTH 6 0
BBX 5 8 1 0
BITMAP
10
28
00
38
48
90
B0
58
ENDCHAR

STARTCHAR abreve
ENCODING 227
SWIDTH 620 0
DWIDTH 6 0
BBX 6 8 1 0
BITMAP
24
18
00
38
48
90
B0
58
ENDCHAR

STARTCHAR adieresis
ENCODING 228
SWIDTH 620 0
DWIDTH 6 0
BBX 5 7 1 0
BITMAP
28
00
38
48
90
B0
58
ENDCHAR

STARTCHAR lacute
ENCODING 229
SWIDTH 280 0
DWIDTH 3 0
BBX 4 10 1 0
BITMAP
10
20
00
60
20
40
40
40
80
C0
ENDCHAR

STARTCHAR cacute
ENCODING 230
SWIDTH 480 0
DWIDTH 5 0
BBX 5 8 1 0
BITMAP
08
10
00
30
48
80
88
70
ENDCHAR

STARTCHAR ccedilla
ENCODING 231
SWIDTH 480 0
DWIDTH 5 0
BBX 5 8 1 -3
BITMAP
30
48
80
88
70
20
10
60
ENDCHAR

STARTCHAR ccaron
ENCODING 232
SWIDTH 480 0
DWIDTH 5 0
BBX 5 8 1 0
BITMAP
28
10
00
30
48
80
88
70
ENDCHAR

STARTCHAR eacute
ENCODING 233
SWIDTH 540 0
DWIDTH 5 0
BBX 5 8 1 0
BITMAP
08
10
00
30
48
F0
80
70
ENDCHAR

STARTCHAR eogonek
ENCODING 234
SWIDTH 540 0
DWIDTH 5 0
BBX 5 7 1 -2
BITMAP
30
48
F0
80
70
20
30
ENDCHAR

STARTCHAR edieresis
ENCODING 235
SWIDTH 540 0
DWIDTH 5 0
BBX 5 7 1 0
BITMAP
28
00
30
48
F0
80
70
ENDCHAR

STARTCHAR ecaron
ENCODING 236
SWIDTH 540 0
DWIDTH 5 0
BBX 5 8 1 0
BITMAP
28
10
00
30
48
F0
80
70
ENDCHAR

STARTCHAR iacute
ENCODING 237
SWIDTH 280 0
DWIDTH 3 0
BBX 3 8 1 0
BITMAP
20
40
00
C0
40
80
80
C0
ENDCHAR

STARTCHAR icircumflex
ENCODING 238
SWIDTH 280 0
DWIDTH 3 0
BBX 3 8 1 0
BITMAP
40
A0
00
C0
40
80
80
C0
ENDCHAR

STARTCHAR dcaron
ENCODING 239
SWIDTH 711 0
DWIDTH 7 0
BBX 9 7 1 0
BITMAP
0680
0280
3500
4C00
8800
9800
6C00
ENDCHAR

STARTCHAR dcroat
ENCODING 240
SWIDTH 640 0
DWIDTH 7 0
BBX 8 7 1 0
BITMAP
07
02
34
4C
88
98
6C
ENDCHAR

STARTCHAR nacute
ENCODING 241
SWIDTH 620 0
DWIDTH 6 0
BBX 5 8 1 0
BITMAP
08
10
00
D8
68
48
90
98
ENDCHAR

STARTCHAR ncaron
ENCODING 242
SWIDTH 620 0
DWIDTH 6 0
BBX 5 8 1 0
BITMAP
28
10
00
D8
68
48
90
98
ENDCHAR

STARTCHAR oacute
ENCODING 243
SWIDTH 540 0
DWIDTH 5 0
BBX 5 8 1 0
BITMAP
08
10
00
30
48
88
90
60
ENDCHAR

STARTCHAR ocircumflex
ENCODING 244
SWIDTH 540 0
DWIDTH 5 0
BBX 5 8 1 0
BITMAP
10
28
00
30
48
88
90
60
ENDCHAR

STARTCHAR ohungarumlaut
ENCODING 245
SWIDTH 540 0
DWIDTH 5 0
BBX 6 8 1 0
BITMAP
14
28
00
30
48
88
90
60
ENDCHAR

STARTCHAR odieresis
ENCODING 246
SWIDTH 540 0
DWIDTH 5 0
BBX 5 7 1 0
BITMAP
28
00
30
48
88
90
60
ENDCHAR

STARTCHAR divide
ENCODING 247
SWIDTH 600 0
DWIDTH 6 0
BBX 5 5 1 1
BITMAP
20
00
F8
00
20
ENDCHAR

STARTCHAR rcaron
ENCODING 248
SWIDTH 400 0
DWIDTH 4 0
BBX 4 8 1 0
BITMAP
50
20
00
D0
60
40
80
80
ENDCHAR

STARTCHAR uring
ENCODING 249
SWIDTH 620 0
DWIDTH 6 0
BBX 5 9 1 0
BITMAP
10
28
10
00
C8
48
90
B0
D8
ENDCHAR

STARTCHAR uacute
ENCODING 250
SWIDTH 620 0
DWIDTH 6 0
BBX 5 8 1 0
BITMAP
10
20
00
C8
48
90
B0
D8
ENDCHAR

STARTCHAR uhungarumlaut
ENCODING 251
SWIDTH 620 0
DWIDTH 6 0
BBX 6 8 1 0
BITMAP
14
28
00
C8
48
90
B0
D8
ENDCHAR

STARTCHAR udieresis
ENCODING 252
SWIDTH 620 0
DWIDTH 6 0
BBX 5 7 1 0
BITMAP
28
00
C8
48
90
B0
D8
ENDCHAR

STARTCHAR yacute
ENCODING 253
SWIDTH 600 0
DWIDTH 6 0
BBX 6 10 0 -2
BITMAP
08
10
00
64
24
44
58
28
88
70
ENDCHAR

STARTCHAR tcommaaccent
ENCODING 254
SWIDTH 340 0
DWIDTH 3 0
BBX 3 9 1 -3
BITMAP
40
E0
40
80
A0
C0
00
40
80
ENDCHAR

STARTCHAR dotaccent
ENCODING 255
SWIDTH 260 0
DWIDTH 3 0
BBX 1 1 1 6
BITMAP
80
ENDCHAR
ENDFONT
